<mxfile host="app.diagrams.net" modified="2024-03-11T05:22:51.615Z" agent="Mozilla/5.0 (Windows NT 10.0; Win64; x64) AppleWebKit/537.36 (KHTML, like Gecko) Chrome/122.0.0.0 Safari/537.36" version="24.0.4" etag="bB-75f6CC68cnS1dcc-R" type="github">
  <diagram name="第 1 页" id="0XCgoWQlna-G-CLTftLt">
    <mxGraphModel>
      <root>
        <mxCell id="0" />
        <mxCell id="1" parent="0" />
      </root>
    </mxGraphModel>
  </diagram>
</mxfile>
